%TF.GenerationSoftware,KiCad,Pcbnew,8.0.0*%
%TF.CreationDate,2024-03-16T20:50:43+13:00*%
%TF.ProjectId,Sense,53656e73-652e-46b6-9963-61645f706362,A*%
%TF.SameCoordinates,Original*%
%TF.FileFunction,Copper,L2,Inr*%
%TF.FilePolarity,Positive*%
%FSLAX46Y46*%
G04 Gerber Fmt 4.6, Leading zero omitted, Abs format (unit mm)*
G04 Created by KiCad (PCBNEW 8.0.0) date 2024-03-16 20:50:43*
%MOMM*%
%LPD*%
G01*
G04 APERTURE LIST*
%TA.AperFunction,ComponentPad*%
%ADD10R,1.700000X1.700000*%
%TD*%
%TA.AperFunction,ComponentPad*%
%ADD11O,1.700000X1.700000*%
%TD*%
%TA.AperFunction,ViaPad*%
%ADD12C,0.350000*%
%TD*%
G04 APERTURE END LIST*
D10*
%TO.N,/SCL*%
%TO.C,J1*%
X114300000Y-74930000D03*
D11*
%TO.N,/IMU_INT_1*%
X114300000Y-77470000D03*
%TO.N,/SDA*%
X114300000Y-80010000D03*
%TD*%
D10*
%TO.N,+3V3*%
%TO.C,J2*%
X129540000Y-74930000D03*
D11*
%TO.N,unconnected-(J2-Pin_2-Pad2)*%
X129540000Y-77470000D03*
%TO.N,GND*%
X129540000Y-80010000D03*
%TD*%
D12*
%TO.N,+3V3*%
X127000000Y-74930000D03*
X119380000Y-73660000D03*
X116840000Y-75565000D03*
X119380000Y-81280000D03*
X121920000Y-77470000D03*
%TO.N,GND*%
X116205000Y-81280000D03*
X127635000Y-76200000D03*
X126365000Y-81280000D03*
X123825000Y-80010000D03*
X119380000Y-74930000D03*
X122555000Y-79375000D03*
X116205000Y-77470000D03*
X121285000Y-73660000D03*
X121285000Y-76835000D03*
X116205000Y-73660000D03*
X116840000Y-78740000D03*
X118745000Y-79375000D03*
X124460000Y-73660000D03*
X121285000Y-80010000D03*
%TO.N,/SDA*%
X123825000Y-78105000D03*
X122555000Y-74295000D03*
X116205000Y-80010000D03*
%TO.N,/IMU_INT_1*%
X127000000Y-79375000D03*
%TD*%
%TA.AperFunction,Conductor*%
%TO.N,GND*%
G36*
X118970000Y-72910185D02*
G01*
X119015755Y-72962989D01*
X119025699Y-73032147D01*
X118996674Y-73095703D01*
X118985188Y-73107315D01*
X118870672Y-73208766D01*
X118870666Y-73208773D01*
X118777483Y-73343771D01*
X118719312Y-73497154D01*
X118719311Y-73497157D01*
X118699539Y-73659999D01*
X118699539Y-73660000D01*
X118719311Y-73822842D01*
X118719312Y-73822845D01*
X118776075Y-73972517D01*
X118777483Y-73976228D01*
X118816060Y-74032116D01*
X118870668Y-74111229D01*
X118870670Y-74111231D01*
X118870672Y-74111233D01*
X118993451Y-74220006D01*
X118993452Y-74220006D01*
X118993454Y-74220008D01*
X119138705Y-74296242D01*
X119138707Y-74296242D01*
X119138708Y-74296243D01*
X119297978Y-74335500D01*
X119297979Y-74335500D01*
X119462022Y-74335500D01*
X119621291Y-74296243D01*
X119621291Y-74296242D01*
X119621295Y-74296242D01*
X119623661Y-74295000D01*
X121874539Y-74295000D01*
X121894311Y-74457842D01*
X121894312Y-74457845D01*
X121952483Y-74611228D01*
X122031055Y-74725059D01*
X122045668Y-74746229D01*
X122045670Y-74746231D01*
X122045672Y-74746233D01*
X122168451Y-74855006D01*
X122168452Y-74855006D01*
X122168454Y-74855008D01*
X122313705Y-74931242D01*
X122313707Y-74931242D01*
X122313708Y-74931243D01*
X122472978Y-74970500D01*
X122472979Y-74970500D01*
X122637022Y-74970500D01*
X122796291Y-74931243D01*
X122796291Y-74931242D01*
X122796295Y-74931242D01*
X122798661Y-74930000D01*
X126319539Y-74930000D01*
X126339311Y-75092842D01*
X126339312Y-75092845D01*
X126397483Y-75246228D01*
X126476055Y-75360059D01*
X126490668Y-75381229D01*
X126490670Y-75381231D01*
X126490672Y-75381233D01*
X126613451Y-75490006D01*
X126613452Y-75490006D01*
X126613454Y-75490008D01*
X126758705Y-75566242D01*
X126758707Y-75566242D01*
X126758708Y-75566243D01*
X126917978Y-75605500D01*
X126917979Y-75605500D01*
X127082022Y-75605500D01*
X127241291Y-75566243D01*
X127241291Y-75566242D01*
X127241295Y-75566242D01*
X127386546Y-75490008D01*
X127509332Y-75381229D01*
X127602518Y-75246226D01*
X127660688Y-75092845D01*
X127680461Y-74930000D01*
X127660688Y-74767155D01*
X127602518Y-74613774D01*
X127509332Y-74478771D01*
X127509329Y-74478768D01*
X127509327Y-74478766D01*
X127386548Y-74369993D01*
X127243661Y-74295000D01*
X127241295Y-74293758D01*
X127241294Y-74293757D01*
X127241291Y-74293756D01*
X127082022Y-74254500D01*
X127082021Y-74254500D01*
X126917979Y-74254500D01*
X126917978Y-74254500D01*
X126758708Y-74293756D01*
X126613451Y-74369993D01*
X126490672Y-74478766D01*
X126490666Y-74478773D01*
X126397483Y-74613771D01*
X126339312Y-74767154D01*
X126339311Y-74767157D01*
X126319539Y-74929999D01*
X126319539Y-74930000D01*
X122798661Y-74930000D01*
X122941546Y-74855008D01*
X123064332Y-74746229D01*
X123157518Y-74611226D01*
X123215688Y-74457845D01*
X123235461Y-74295000D01*
X123215688Y-74132155D01*
X123157518Y-73978774D01*
X123064332Y-73843771D01*
X123064329Y-73843768D01*
X123064327Y-73843766D01*
X122941548Y-73734993D01*
X122798661Y-73660000D01*
X122796295Y-73658758D01*
X122796294Y-73658757D01*
X122796291Y-73658756D01*
X122637022Y-73619500D01*
X122637021Y-73619500D01*
X122472979Y-73619500D01*
X122472978Y-73619500D01*
X122313708Y-73658756D01*
X122168451Y-73734993D01*
X122045672Y-73843766D01*
X122045666Y-73843773D01*
X121952483Y-73978771D01*
X121894312Y-74132154D01*
X121894311Y-74132157D01*
X121874539Y-74294999D01*
X121874539Y-74295000D01*
X119623661Y-74295000D01*
X119766546Y-74220008D01*
X119889332Y-74111229D01*
X119982518Y-73976226D01*
X120040688Y-73822845D01*
X120060461Y-73660000D01*
X120040688Y-73497155D01*
X119982518Y-73343774D01*
X119889332Y-73208771D01*
X119889329Y-73208768D01*
X119889327Y-73208766D01*
X119774812Y-73107315D01*
X119737685Y-73048126D01*
X119738453Y-72978261D01*
X119776870Y-72919901D01*
X119840741Y-72891576D01*
X119857039Y-72890500D01*
X128915500Y-72890500D01*
X128982539Y-72910185D01*
X129028294Y-72962989D01*
X129039500Y-73014500D01*
X129039500Y-73455500D01*
X129019815Y-73522539D01*
X128967011Y-73568294D01*
X128915500Y-73579500D01*
X128642130Y-73579500D01*
X128642123Y-73579501D01*
X128582516Y-73585908D01*
X128447671Y-73636202D01*
X128447664Y-73636206D01*
X128332455Y-73722452D01*
X128332452Y-73722455D01*
X128246206Y-73837664D01*
X128246202Y-73837671D01*
X128195908Y-73972517D01*
X128189501Y-74032116D01*
X128189501Y-74032123D01*
X128189500Y-74032135D01*
X128189500Y-75827870D01*
X128189501Y-75827876D01*
X128195908Y-75887483D01*
X128246202Y-76022328D01*
X128246206Y-76022335D01*
X128332452Y-76137544D01*
X128332455Y-76137547D01*
X128447664Y-76223793D01*
X128447671Y-76223797D01*
X128579081Y-76272810D01*
X128635015Y-76314681D01*
X128659432Y-76380145D01*
X128644580Y-76448418D01*
X128623430Y-76476673D01*
X128501503Y-76598600D01*
X128365965Y-76792169D01*
X128365964Y-76792171D01*
X128266098Y-77006335D01*
X128266094Y-77006344D01*
X128204938Y-77234586D01*
X128204936Y-77234596D01*
X128184341Y-77469999D01*
X128184341Y-77470000D01*
X128204936Y-77705403D01*
X128204938Y-77705413D01*
X128266094Y-77933655D01*
X128266096Y-77933659D01*
X128266097Y-77933663D01*
X128270057Y-77942155D01*
X128365965Y-78147830D01*
X128365967Y-78147834D01*
X128449998Y-78267842D01*
X128501505Y-78341401D01*
X128668599Y-78508495D01*
X128736766Y-78556226D01*
X128862165Y-78644032D01*
X128862167Y-78644033D01*
X128862170Y-78644035D01*
X128967904Y-78693339D01*
X129020344Y-78739511D01*
X129039500Y-78805721D01*
X129039500Y-81925500D01*
X129019815Y-81992539D01*
X128967011Y-82038294D01*
X128915500Y-82049500D01*
X119857039Y-82049500D01*
X119790000Y-82029815D01*
X119744245Y-81977011D01*
X119734301Y-81907853D01*
X119763326Y-81844297D01*
X119774812Y-81832685D01*
X119889327Y-81731233D01*
X119889332Y-81731229D01*
X119982518Y-81596226D01*
X120040688Y-81442845D01*
X120060461Y-81280000D01*
X120040688Y-81117155D01*
X119982518Y-80963774D01*
X119889332Y-80828771D01*
X119889329Y-80828768D01*
X119889327Y-80828766D01*
X119766548Y-80719993D01*
X119621291Y-80643756D01*
X119462022Y-80604500D01*
X119462021Y-80604500D01*
X119297979Y-80604500D01*
X119297978Y-80604500D01*
X119138708Y-80643756D01*
X118993451Y-80719993D01*
X118870672Y-80828766D01*
X118870666Y-80828773D01*
X118777483Y-80963771D01*
X118719312Y-81117154D01*
X118719311Y-81117157D01*
X118699539Y-81279999D01*
X118699539Y-81280000D01*
X118719311Y-81442842D01*
X118719312Y-81442845D01*
X118777482Y-81596226D01*
X118870668Y-81731229D01*
X118870670Y-81731231D01*
X118870672Y-81731233D01*
X118985188Y-81832685D01*
X119022315Y-81891874D01*
X119021547Y-81961739D01*
X118983130Y-82020099D01*
X118919259Y-82048424D01*
X118902961Y-82049500D01*
X114924500Y-82049500D01*
X114857461Y-82029815D01*
X114811706Y-81977011D01*
X114800500Y-81925500D01*
X114800500Y-81345721D01*
X114820185Y-81278682D01*
X114872095Y-81233339D01*
X114977830Y-81184035D01*
X115171401Y-81048495D01*
X115338495Y-80881401D01*
X115474035Y-80687830D01*
X115543376Y-80539127D01*
X115589547Y-80486689D01*
X115656740Y-80467537D01*
X115723622Y-80487752D01*
X115737984Y-80498718D01*
X115818451Y-80570006D01*
X115818452Y-80570006D01*
X115818454Y-80570008D01*
X115963705Y-80646242D01*
X115963707Y-80646242D01*
X115963708Y-80646243D01*
X116122978Y-80685500D01*
X116122979Y-80685500D01*
X116287022Y-80685500D01*
X116446291Y-80646243D01*
X116446291Y-80646242D01*
X116446295Y-80646242D01*
X116591546Y-80570008D01*
X116714332Y-80461229D01*
X116807518Y-80326226D01*
X116865688Y-80172845D01*
X116885461Y-80010000D01*
X116865688Y-79847155D01*
X116807518Y-79693774D01*
X116714332Y-79558771D01*
X116714329Y-79558768D01*
X116714327Y-79558766D01*
X116591548Y-79449993D01*
X116448661Y-79375000D01*
X126319539Y-79375000D01*
X126339311Y-79537842D01*
X126339312Y-79537845D01*
X126397483Y-79691228D01*
X126455025Y-79774592D01*
X126490668Y-79826229D01*
X126490670Y-79826231D01*
X126490672Y-79826233D01*
X126613451Y-79935006D01*
X126613452Y-79935006D01*
X126613454Y-79935008D01*
X126758705Y-80011242D01*
X126758707Y-80011242D01*
X126758708Y-80011243D01*
X126917978Y-80050500D01*
X126917979Y-80050500D01*
X127082022Y-80050500D01*
X127241291Y-80011243D01*
X127241291Y-80011242D01*
X127241295Y-80011242D01*
X127386546Y-79935008D01*
X127509332Y-79826229D01*
X127602518Y-79691226D01*
X127660688Y-79537845D01*
X127680461Y-79375000D01*
X127660688Y-79212155D01*
X127602518Y-79058774D01*
X127509332Y-78923771D01*
X127509329Y-78923768D01*
X127509327Y-78923766D01*
X127386548Y-78814993D01*
X127241291Y-78738756D01*
X127082022Y-78699500D01*
X127082021Y-78699500D01*
X126917979Y-78699500D01*
X126917978Y-78699500D01*
X126758708Y-78738756D01*
X126613451Y-78814993D01*
X126490672Y-78923766D01*
X126490666Y-78923773D01*
X126397483Y-79058771D01*
X126339312Y-79212154D01*
X126339311Y-79212157D01*
X126319539Y-79374999D01*
X126319539Y-79375000D01*
X116448661Y-79375000D01*
X116446295Y-79373758D01*
X116446294Y-79373757D01*
X116446291Y-79373756D01*
X116287022Y-79334500D01*
X116287021Y-79334500D01*
X116122979Y-79334500D01*
X116122978Y-79334500D01*
X115963708Y-79373756D01*
X115818453Y-79449992D01*
X115737984Y-79521282D01*
X115674751Y-79551003D01*
X115605487Y-79541819D01*
X115552184Y-79496647D01*
X115543375Y-79480871D01*
X115528976Y-79449993D01*
X115474035Y-79332171D01*
X115390000Y-79212155D01*
X115338494Y-79138597D01*
X115171402Y-78971506D01*
X115171396Y-78971501D01*
X114985842Y-78841575D01*
X114942217Y-78786998D01*
X114935023Y-78717500D01*
X114966546Y-78655145D01*
X114985842Y-78638425D01*
X115103224Y-78556233D01*
X115171401Y-78508495D01*
X115338495Y-78341401D01*
X115474035Y-78147830D01*
X115573903Y-77933663D01*
X115635063Y-77705408D01*
X115655659Y-77470000D01*
X121239539Y-77470000D01*
X121259311Y-77632842D01*
X121259312Y-77632845D01*
X121317483Y-77786228D01*
X121396055Y-77900059D01*
X121410668Y-77921229D01*
X121410670Y-77921231D01*
X121410672Y-77921233D01*
X121533451Y-78030006D01*
X121533452Y-78030006D01*
X121533454Y-78030008D01*
X121678705Y-78106242D01*
X121678707Y-78106242D01*
X121678708Y-78106243D01*
X121837978Y-78145500D01*
X121837979Y-78145500D01*
X122002022Y-78145500D01*
X122161291Y-78106243D01*
X122161291Y-78106242D01*
X122161295Y-78106242D01*
X122163661Y-78105000D01*
X123144539Y-78105000D01*
X123164311Y-78267842D01*
X123164312Y-78267845D01*
X123222483Y-78421228D01*
X123282722Y-78508498D01*
X123315668Y-78556229D01*
X123315670Y-78556231D01*
X123315672Y-78556233D01*
X123438451Y-78665006D01*
X123438452Y-78665006D01*
X123438454Y-78665008D01*
X123583705Y-78741242D01*
X123583707Y-78741242D01*
X123583708Y-78741243D01*
X123742978Y-78780500D01*
X123742979Y-78780500D01*
X123907022Y-78780500D01*
X124066291Y-78741243D01*
X124066291Y-78741242D01*
X124066295Y-78741242D01*
X124211546Y-78665008D01*
X124334332Y-78556229D01*
X124427518Y-78421226D01*
X124485688Y-78267845D01*
X124505461Y-78105000D01*
X124485688Y-77942155D01*
X124427518Y-77788774D01*
X124334332Y-77653771D01*
X124334329Y-77653768D01*
X124334327Y-77653766D01*
X124211548Y-77544993D01*
X124068661Y-77470000D01*
X124066295Y-77468758D01*
X124066294Y-77468757D01*
X124066291Y-77468756D01*
X123907022Y-77429500D01*
X123907021Y-77429500D01*
X123742979Y-77429500D01*
X123742978Y-77429500D01*
X123583708Y-77468756D01*
X123438451Y-77544993D01*
X123315672Y-77653766D01*
X123315666Y-77653773D01*
X123222483Y-77788771D01*
X123164312Y-77942154D01*
X123164311Y-77942157D01*
X123144539Y-78104999D01*
X123144539Y-78105000D01*
X122163661Y-78105000D01*
X122306546Y-78030008D01*
X122429332Y-77921229D01*
X122522518Y-77786226D01*
X122580688Y-77632845D01*
X122600461Y-77470000D01*
X122580688Y-77307155D01*
X122522518Y-77153774D01*
X122429332Y-77018771D01*
X122429329Y-77018768D01*
X122429327Y-77018766D01*
X122306548Y-76909993D01*
X122161291Y-76833756D01*
X122002022Y-76794500D01*
X122002021Y-76794500D01*
X121837979Y-76794500D01*
X121837978Y-76794500D01*
X121678708Y-76833756D01*
X121533451Y-76909993D01*
X121410672Y-77018766D01*
X121410666Y-77018773D01*
X121317483Y-77153771D01*
X121259312Y-77307154D01*
X121259311Y-77307157D01*
X121239539Y-77469999D01*
X121239539Y-77470000D01*
X115655659Y-77470000D01*
X115635063Y-77234592D01*
X115573903Y-77006337D01*
X115474035Y-76792171D01*
X115338495Y-76598599D01*
X115216567Y-76476671D01*
X115183084Y-76415351D01*
X115188068Y-76345659D01*
X115229939Y-76289725D01*
X115260915Y-76272810D01*
X115392331Y-76223796D01*
X115507546Y-76137546D01*
X115593796Y-76022331D01*
X115644091Y-75887483D01*
X115650500Y-75827873D01*
X115650500Y-75565000D01*
X116159539Y-75565000D01*
X116179311Y-75727842D01*
X116179312Y-75727845D01*
X116237482Y-75881226D01*
X116330668Y-76016229D01*
X116330670Y-76016231D01*
X116330672Y-76016233D01*
X116453451Y-76125006D01*
X116453452Y-76125006D01*
X116453454Y-76125008D01*
X116598705Y-76201242D01*
X116598707Y-76201242D01*
X116598708Y-76201243D01*
X116757978Y-76240500D01*
X116757979Y-76240500D01*
X116922022Y-76240500D01*
X117081291Y-76201243D01*
X117081291Y-76201242D01*
X117081295Y-76201242D01*
X117226546Y-76125008D01*
X117349332Y-76016229D01*
X117442518Y-75881226D01*
X117500688Y-75727845D01*
X117520461Y-75565000D01*
X117500688Y-75402155D01*
X117442518Y-75248774D01*
X117349332Y-75113771D01*
X117349329Y-75113768D01*
X117349327Y-75113766D01*
X117226548Y-75004993D01*
X117083661Y-74930000D01*
X117081295Y-74928758D01*
X117081294Y-74928757D01*
X117081291Y-74928756D01*
X116922022Y-74889500D01*
X116922021Y-74889500D01*
X116757979Y-74889500D01*
X116757978Y-74889500D01*
X116598708Y-74928756D01*
X116453451Y-75004993D01*
X116330672Y-75113766D01*
X116330666Y-75113773D01*
X116237483Y-75248771D01*
X116179312Y-75402154D01*
X116179311Y-75402157D01*
X116159539Y-75564999D01*
X116159539Y-75565000D01*
X115650500Y-75565000D01*
X115650499Y-74032128D01*
X115644091Y-73972517D01*
X115593796Y-73837669D01*
X115593795Y-73837668D01*
X115593793Y-73837664D01*
X115507547Y-73722455D01*
X115507544Y-73722452D01*
X115392335Y-73636206D01*
X115392328Y-73636202D01*
X115257482Y-73585908D01*
X115257483Y-73585908D01*
X115197883Y-73579501D01*
X115197881Y-73579500D01*
X115197873Y-73579500D01*
X115197865Y-73579500D01*
X114924500Y-73579500D01*
X114857461Y-73559815D01*
X114811706Y-73507011D01*
X114800500Y-73455500D01*
X114800500Y-73014500D01*
X114820185Y-72947461D01*
X114872989Y-72901706D01*
X114924500Y-72890500D01*
X118902961Y-72890500D01*
X118970000Y-72910185D01*
G37*
%TD.AperFunction*%
%TD*%
M02*
