M48
; DRILL file {KiCad 8.0.0} date 2024-03-16T20:50:47+1300
; FORMAT={-:-/ absolute / metric / decimal}
; #@! TF.CreationDate,2024-03-16T20:50:47+13:00
; #@! TF.GenerationSoftware,Kicad,Pcbnew,8.0.0
; #@! TF.FileFunction,Plated,1,4,PTH
FMAT,2
METRIC
; #@! TA.AperFunction,Plated,PTH,ViaDrill
T1C0.200
; #@! TA.AperFunction,Plated,PTH,ComponentDrill
T2C1.000
%
G90
G05
T1
X116.205Y-73.66
X116.205Y-77.47
X116.205Y-80.01
X116.205Y-81.28
X116.84Y-75.565
X116.84Y-78.74
X118.745Y-79.375
X119.38Y-73.66
X119.38Y-74.93
X119.38Y-81.28
X121.285Y-73.66
X121.285Y-76.835
X121.285Y-80.01
X121.92Y-77.47
X122.555Y-74.295
X122.555Y-79.375
X123.825Y-78.105
X123.825Y-80.01
X124.46Y-73.66
X126.365Y-81.28
X127.0Y-74.93
X127.0Y-79.375
X127.635Y-76.2
T2
X114.3Y-74.93
X114.3Y-77.47
X114.3Y-80.01
X129.54Y-74.93
X129.54Y-77.47
X129.54Y-80.01
M30
