%TF.GenerationSoftware,KiCad,Pcbnew,8.0.0*%
%TF.CreationDate,2024-03-16T20:50:43+13:00*%
%TF.ProjectId,Sense,53656e73-652e-46b6-9963-61645f706362,A*%
%TF.SameCoordinates,Original*%
%TF.FileFunction,Copper,L3,Inr*%
%TF.FilePolarity,Positive*%
%FSLAX46Y46*%
G04 Gerber Fmt 4.6, Leading zero omitted, Abs format (unit mm)*
G04 Created by KiCad (PCBNEW 8.0.0) date 2024-03-16 20:50:43*
%MOMM*%
%LPD*%
G01*
G04 APERTURE LIST*
%TA.AperFunction,ComponentPad*%
%ADD10R,1.700000X1.700000*%
%TD*%
%TA.AperFunction,ComponentPad*%
%ADD11O,1.700000X1.700000*%
%TD*%
%TA.AperFunction,ViaPad*%
%ADD12C,0.350000*%
%TD*%
%TA.AperFunction,Conductor*%
%ADD13C,0.100000*%
%TD*%
G04 APERTURE END LIST*
D10*
%TO.N,/SCL*%
%TO.C,J1*%
X114300000Y-74930000D03*
D11*
%TO.N,/IMU_INT_1*%
X114300000Y-77470000D03*
%TO.N,/SDA*%
X114300000Y-80010000D03*
%TD*%
D10*
%TO.N,+3V3*%
%TO.C,J2*%
X129540000Y-74930000D03*
D11*
%TO.N,unconnected-(J2-Pin_2-Pad2)*%
X129540000Y-77470000D03*
%TO.N,GND*%
X129540000Y-80010000D03*
%TD*%
D12*
%TO.N,+3V3*%
X127000000Y-74930000D03*
X119380000Y-73660000D03*
X116840000Y-75565000D03*
X119380000Y-81280000D03*
X121920000Y-77470000D03*
%TO.N,GND*%
X116205000Y-81280000D03*
X127635000Y-76200000D03*
X126365000Y-81280000D03*
X123825000Y-80010000D03*
X119380000Y-74930000D03*
X122555000Y-79375000D03*
X116205000Y-77470000D03*
X121285000Y-73660000D03*
X121285000Y-76835000D03*
X116205000Y-73660000D03*
X116840000Y-78740000D03*
X118745000Y-79375000D03*
X124460000Y-73660000D03*
X121285000Y-80010000D03*
%TO.N,/SDA*%
X123825000Y-78105000D03*
X122555000Y-74295000D03*
X116205000Y-80010000D03*
%TO.N,/IMU_INT_1*%
X127000000Y-79375000D03*
%TD*%
D13*
%TO.N,/SDA*%
X120015000Y-76835000D02*
X120015000Y-78105000D01*
X123825000Y-78105000D02*
X120650000Y-78105000D01*
X120650000Y-78105000D02*
X120015000Y-78740000D01*
X120015000Y-79375000D02*
X119380000Y-80010000D01*
X120015000Y-78105000D02*
X120015000Y-79375000D01*
X119380000Y-80010000D02*
X116205000Y-80010000D01*
X122555000Y-74295000D02*
X120015000Y-76835000D01*
%TO.N,/IMU_INT_1*%
X115570000Y-78190000D02*
X114850000Y-77470000D01*
X126365000Y-79375000D02*
X125305000Y-80435000D01*
X116028959Y-80435000D02*
X115570000Y-79976041D01*
X115570000Y-79976041D02*
X115570000Y-78190000D01*
X127000000Y-79375000D02*
X126365000Y-79375000D01*
X125305000Y-80435000D02*
X116028959Y-80435000D01*
%TD*%
M02*
