%TF.GenerationSoftware,KiCad,Pcbnew,8.0.0*%
%TF.CreationDate,2024-03-16T20:50:43+13:00*%
%TF.ProjectId,Sense,53656e73-652e-46b6-9963-61645f706362,A*%
%TF.SameCoordinates,Original*%
%TF.FileFunction,Copper,L1,Top*%
%TF.FilePolarity,Positive*%
%FSLAX46Y46*%
G04 Gerber Fmt 4.6, Leading zero omitted, Abs format (unit mm)*
G04 Created by KiCad (PCBNEW 8.0.0) date 2024-03-16 20:50:43*
%MOMM*%
%LPD*%
G01*
G04 APERTURE LIST*
G04 Aperture macros list*
%AMRoundRect*
0 Rectangle with rounded corners*
0 $1 Rounding radius*
0 $2 $3 $4 $5 $6 $7 $8 $9 X,Y pos of 4 corners*
0 Add a 4 corners polygon primitive as box body*
4,1,4,$2,$3,$4,$5,$6,$7,$8,$9,$2,$3,0*
0 Add four circle primitives for the rounded corners*
1,1,$1+$1,$2,$3*
1,1,$1+$1,$4,$5*
1,1,$1+$1,$6,$7*
1,1,$1+$1,$8,$9*
0 Add four rect primitives between the rounded corners*
20,1,$1+$1,$2,$3,$4,$5,0*
20,1,$1+$1,$4,$5,$6,$7,0*
20,1,$1+$1,$6,$7,$8,$9,0*
20,1,$1+$1,$8,$9,$2,$3,0*%
G04 Aperture macros list end*
%TA.AperFunction,SMDPad,CuDef*%
%ADD10RoundRect,0.135000X0.135000X0.185000X-0.135000X0.185000X-0.135000X-0.185000X0.135000X-0.185000X0*%
%TD*%
%TA.AperFunction,SMDPad,CuDef*%
%ADD11RoundRect,0.140000X-0.170000X0.140000X-0.170000X-0.140000X0.170000X-0.140000X0.170000X0.140000X0*%
%TD*%
%TA.AperFunction,ComponentPad*%
%ADD12R,1.700000X1.700000*%
%TD*%
%TA.AperFunction,ComponentPad*%
%ADD13O,1.700000X1.700000*%
%TD*%
%TA.AperFunction,SMDPad,CuDef*%
%ADD14RoundRect,0.087500X0.087500X-0.225000X0.087500X0.225000X-0.087500X0.225000X-0.087500X-0.225000X0*%
%TD*%
%TA.AperFunction,SMDPad,CuDef*%
%ADD15RoundRect,0.087500X0.225000X-0.087500X0.225000X0.087500X-0.225000X0.087500X-0.225000X-0.087500X0*%
%TD*%
%TA.AperFunction,SMDPad,CuDef*%
%ADD16RoundRect,0.140000X-0.140000X-0.170000X0.140000X-0.170000X0.140000X0.170000X-0.140000X0.170000X0*%
%TD*%
%TA.AperFunction,SMDPad,CuDef*%
%ADD17RoundRect,0.140000X0.140000X0.170000X-0.140000X0.170000X-0.140000X-0.170000X0.140000X-0.170000X0*%
%TD*%
%TA.AperFunction,BGAPad,CuDef*%
%ADD18C,0.250000*%
%TD*%
%TA.AperFunction,SMDPad,CuDef*%
%ADD19RoundRect,0.087500X-0.125000X-0.087500X0.125000X-0.087500X0.125000X0.087500X-0.125000X0.087500X0*%
%TD*%
%TA.AperFunction,SMDPad,CuDef*%
%ADD20RoundRect,0.087500X-0.087500X-0.125000X0.087500X-0.125000X0.087500X0.125000X-0.087500X0.125000X0*%
%TD*%
%TA.AperFunction,ViaPad*%
%ADD21C,0.350000*%
%TD*%
%TA.AperFunction,Conductor*%
%ADD22C,0.100000*%
%TD*%
G04 APERTURE END LIST*
D10*
%TO.P,R1,1*%
%TO.N,+3V3*%
X118620000Y-81280000D03*
%TO.P,R1,2*%
%TO.N,/SDA*%
X117600000Y-81280000D03*
%TD*%
D11*
%TO.P,C2,1*%
%TO.N,+3V3*%
X122555000Y-77625000D03*
%TO.P,C2,2*%
%TO.N,GND*%
X122555000Y-78585000D03*
%TD*%
D12*
%TO.P,J1,1,Pin_1*%
%TO.N,/SCL*%
X114300000Y-74930000D03*
D13*
%TO.P,J1,2,Pin_2*%
%TO.N,/IMU_INT_1*%
X114300000Y-77470000D03*
%TO.P,J1,3,Pin_3*%
%TO.N,/SDA*%
X114300000Y-80010000D03*
%TD*%
D10*
%TO.P,R2,1*%
%TO.N,+3V3*%
X118495000Y-73660000D03*
%TO.P,R2,2*%
%TO.N,/SCL*%
X117475000Y-73660000D03*
%TD*%
D14*
%TO.P,U3,1,SDO/SA0*%
%TO.N,GND*%
X124980000Y-78632500D03*
%TO.P,U3,2,SDX*%
X125480000Y-78632500D03*
%TO.P,U3,3,SCX*%
X125980000Y-78632500D03*
%TO.P,U3,4,INT1*%
%TO.N,/IMU_INT_1*%
X126480000Y-78632500D03*
D15*
%TO.P,U3,5,VDDIO*%
%TO.N,+3V3*%
X126642500Y-77970000D03*
%TO.P,U3,6,GND*%
%TO.N,GND*%
X126642500Y-77470000D03*
%TO.P,U3,7,GND*%
X126642500Y-76970000D03*
D14*
%TO.P,U3,8,VDD*%
%TO.N,+3V3*%
X126480000Y-76307500D03*
%TO.P,U3,9,INT2*%
%TO.N,unconnected-(U3-INT2-Pad9)*%
X125980000Y-76307500D03*
%TO.P,U3,10,NC*%
%TO.N,unconnected-(U3-NC-Pad10)*%
X125480000Y-76307500D03*
%TO.P,U3,11,NC*%
%TO.N,unconnected-(U3-NC-Pad11)*%
X124980000Y-76307500D03*
D15*
%TO.P,U3,12,CS*%
%TO.N,+3V3*%
X124817500Y-76970000D03*
%TO.P,U3,13,SCL*%
%TO.N,/SCL*%
X124817500Y-77470000D03*
%TO.P,U3,14,SDA*%
%TO.N,/SDA*%
X124817500Y-77970000D03*
%TD*%
D16*
%TO.P,C3,1*%
%TO.N,+3V3*%
X117475000Y-74930000D03*
%TO.P,C3,2*%
%TO.N,GND*%
X118435000Y-74930000D03*
%TD*%
D17*
%TO.P,C1,1*%
%TO.N,+3V3*%
X126055000Y-73660000D03*
%TO.P,C1,2*%
%TO.N,GND*%
X125095000Y-73660000D03*
%TD*%
D18*
%TO.P,U2,A1,VSA*%
%TO.N,GND*%
X122155000Y-75965000D03*
%TO.P,U2,A2,SCL*%
%TO.N,/SCL*%
X122155000Y-75565000D03*
%TO.P,U2,B1,VDD*%
%TO.N,+3V3*%
X122555000Y-75965000D03*
%TO.P,U2,B2,SDA*%
%TO.N,/SDA*%
X122555000Y-75565000D03*
%TD*%
D12*
%TO.P,J2,1,Pin_1*%
%TO.N,+3V3*%
X129540000Y-74930000D03*
D13*
%TO.P,J2,2,Pin_2*%
%TO.N,unconnected-(J2-Pin_2-Pad2)*%
X129540000Y-77470000D03*
%TO.P,J2,3,Pin_3*%
%TO.N,GND*%
X129540000Y-80010000D03*
%TD*%
D19*
%TO.P,U1,1,VDDIO*%
%TO.N,+3V3*%
X117347500Y-77220000D03*
%TO.P,U1,2,SCL*%
%TO.N,/SCL*%
X117347500Y-77720000D03*
D20*
%TO.P,U1,3,GND*%
%TO.N,GND*%
X117610000Y-78232500D03*
%TO.P,U1,4,SDA*%
%TO.N,/SDA*%
X118110000Y-78232500D03*
%TO.P,U1,5,SDO*%
%TO.N,GND*%
X118610000Y-78232500D03*
D19*
%TO.P,U1,6,CSB*%
%TO.N,unconnected-(U1-CSB-Pad6)*%
X118872500Y-77720000D03*
%TO.P,U1,7*%
%TO.N,N/C*%
X118872500Y-77220000D03*
D20*
%TO.P,U1,8,GND*%
%TO.N,GND*%
X118610000Y-76707500D03*
%TO.P,U1,9,GND*%
X118110000Y-76707500D03*
%TO.P,U1,10,VDD*%
%TO.N,+3V3*%
X117610000Y-76707500D03*
%TD*%
D21*
%TO.N,+3V3*%
X127000000Y-74930000D03*
X119380000Y-73660000D03*
X116840000Y-75565000D03*
X119380000Y-81280000D03*
X121920000Y-77470000D03*
%TO.N,GND*%
X116205000Y-81280000D03*
X127635000Y-76200000D03*
X126365000Y-81280000D03*
X123825000Y-80010000D03*
X119380000Y-74930000D03*
X122555000Y-79375000D03*
X116205000Y-77470000D03*
X121285000Y-73660000D03*
X121285000Y-76835000D03*
X116205000Y-73660000D03*
X116840000Y-78740000D03*
X118745000Y-79375000D03*
X124460000Y-73660000D03*
X121285000Y-80010000D03*
%TO.N,/SDA*%
X123825000Y-78105000D03*
X122555000Y-74295000D03*
X116205000Y-80010000D03*
%TO.N,/IMU_INT_1*%
X127000000Y-79375000D03*
%TD*%
D22*
%TO.N,+3V3*%
X126055000Y-73660000D02*
X126055000Y-73985000D01*
X126642500Y-77970000D02*
X127135000Y-77970000D01*
X118620000Y-81280000D02*
X119380000Y-81280000D01*
X116840000Y-74930000D02*
X117475000Y-74930000D01*
X117475000Y-76200000D02*
X117475000Y-74930000D01*
X117347500Y-77220000D02*
X116840000Y-76712500D01*
X124817500Y-76970000D02*
X124505001Y-76970000D01*
X116840000Y-76712500D02*
X116840000Y-75565000D01*
X116840000Y-75565000D02*
X116840000Y-74930000D01*
X128940000Y-75530000D02*
X128940000Y-74930000D01*
X122555000Y-75965000D02*
X122555000Y-77625000D01*
X128270000Y-76835000D02*
X128270000Y-76200000D01*
X122555000Y-77625000D02*
X122075000Y-77625000D01*
X117610000Y-76335000D02*
X117610000Y-76707500D01*
X124175000Y-76639999D02*
X124175000Y-75565000D01*
X126055000Y-73685000D02*
X126055000Y-73660000D01*
X126480000Y-75450000D02*
X127000000Y-74930000D01*
X117610000Y-76335000D02*
X117475000Y-76200000D01*
X127135000Y-77970000D02*
X128270000Y-76835000D01*
X128270000Y-76200000D02*
X128940000Y-75530000D01*
X122075000Y-77625000D02*
X121920000Y-77470000D01*
X126480000Y-76307500D02*
X126480000Y-75450000D01*
X124175000Y-75565000D02*
X126055000Y-73685000D01*
X124505001Y-76970000D02*
X124175000Y-76639999D01*
X126055000Y-73985000D02*
X127000000Y-74930000D01*
X118495000Y-73660000D02*
X119380000Y-73660000D01*
X127000000Y-74930000D02*
X128940000Y-74930000D01*
%TO.N,GND*%
X117610000Y-78232500D02*
X117347500Y-78232500D01*
X125480000Y-79760000D02*
X125730000Y-80010000D01*
X127635000Y-76200000D02*
X127635000Y-76975026D01*
X122555000Y-78585000D02*
X122555000Y-79375000D01*
X118610000Y-76335000D02*
X118745000Y-76200000D01*
X126865000Y-76970000D02*
X127635000Y-76200000D01*
X118435000Y-74930000D02*
X119380000Y-74930000D01*
X125980000Y-78632500D02*
X125980000Y-79625000D01*
X118745000Y-76200000D02*
X118745000Y-75565000D01*
X126365000Y-80010000D02*
X128940000Y-80010000D01*
X124980000Y-78632500D02*
X124980000Y-79895000D01*
X126642500Y-76970000D02*
X126865000Y-76970000D01*
X125980000Y-79625000D02*
X126365000Y-80010000D01*
X118610000Y-78232500D02*
X118610000Y-79240000D01*
X118745000Y-75565000D02*
X119380000Y-74930000D01*
X118110000Y-76200000D02*
X118745000Y-75565000D01*
X125095000Y-73660000D02*
X124460000Y-73660000D01*
X117347500Y-78232500D02*
X116840000Y-78740000D01*
X118610000Y-76707500D02*
X118610000Y-76335000D01*
X125730000Y-80010000D02*
X126365000Y-80010000D01*
X118110000Y-76707500D02*
X118110000Y-76200000D01*
X127635000Y-76975026D02*
X127140026Y-77470000D01*
X118610000Y-79240000D02*
X118745000Y-79375000D01*
X125095000Y-80010000D02*
X125730000Y-80010000D01*
X125480000Y-78632500D02*
X125480000Y-79760000D01*
X124980000Y-79895000D02*
X125095000Y-80010000D01*
X122155000Y-75965000D02*
X121285000Y-76835000D01*
X127140026Y-77470000D02*
X126642500Y-77470000D01*
%TO.N,/SCL*%
X115570000Y-74930000D02*
X116205000Y-75565000D01*
X122345000Y-73870000D02*
X121920000Y-74295000D01*
X115570000Y-74930000D02*
X114850000Y-74930000D01*
X117475000Y-73660000D02*
X116840000Y-73660000D01*
X124817500Y-77470000D02*
X123825000Y-77470000D01*
X122155000Y-75565000D02*
X121920000Y-75330000D01*
X116205000Y-76769722D02*
X117155278Y-77720000D01*
X121920000Y-74295000D02*
X116205000Y-74295000D01*
X117155278Y-77720000D02*
X117347500Y-77720000D01*
X121920000Y-75330000D02*
X121920000Y-74295000D01*
X116205000Y-74295000D02*
X115570000Y-74930000D01*
X123173020Y-74295000D02*
X122748020Y-73870000D01*
X122748020Y-73870000D02*
X122345000Y-73870000D01*
X116205000Y-75565000D02*
X116205000Y-76769722D01*
X116840000Y-73660000D02*
X115570000Y-74930000D01*
X123825000Y-77470000D02*
X123173020Y-76818020D01*
X123173020Y-76818020D02*
X123173020Y-74295000D01*
%TO.N,/SDA*%
X118110000Y-78444999D02*
X116544999Y-80010000D01*
X122555000Y-75565000D02*
X122555000Y-74295000D01*
X117475000Y-81280000D02*
X116205000Y-80010000D01*
X124817500Y-77970000D02*
X123960000Y-77970000D01*
X116544999Y-80010000D02*
X114850000Y-80010000D01*
X118110000Y-78232500D02*
X118110000Y-78444999D01*
X117600000Y-81280000D02*
X117475000Y-81280000D01*
X123960000Y-77970000D02*
X123825000Y-78105000D01*
%TO.N,/IMU_INT_1*%
X127000000Y-79375000D02*
X126595000Y-79375000D01*
X126595000Y-79375000D02*
X126480000Y-79260000D01*
X126480000Y-79260000D02*
X126480000Y-78632500D01*
%TD*%
M02*
