%TF.GenerationSoftware,KiCad,Pcbnew,8.0.0*%
%TF.CreationDate,2024-03-16T20:50:43+13:00*%
%TF.ProjectId,Sense,53656e73-652e-46b6-9963-61645f706362,A*%
%TF.SameCoordinates,Original*%
%TF.FileFunction,Legend,Top*%
%TF.FilePolarity,Positive*%
%FSLAX46Y46*%
G04 Gerber Fmt 4.6, Leading zero omitted, Abs format (unit mm)*
G04 Created by KiCad (PCBNEW 8.0.0) date 2024-03-16 20:50:43*
%MOMM*%
%LPD*%
G01*
G04 APERTURE LIST*
%ADD10C,0.200000*%
%ADD11C,0.100000*%
%ADD12C,0.110000*%
%ADD13C,0.120000*%
G04 APERTURE END LIST*
D10*
X120983958Y-81782219D02*
X120983958Y-80782219D01*
X120983958Y-80782219D02*
X121267292Y-81496504D01*
X121267292Y-81496504D02*
X121550625Y-80782219D01*
X121550625Y-80782219D02*
X121550625Y-81782219D01*
X121955387Y-81782219D02*
X121955387Y-81115552D01*
X121955387Y-80782219D02*
X121914911Y-80829838D01*
X121914911Y-80829838D02*
X121955387Y-80877457D01*
X121955387Y-80877457D02*
X121995864Y-80829838D01*
X121995864Y-80829838D02*
X121955387Y-80782219D01*
X121955387Y-80782219D02*
X121955387Y-80877457D01*
X122724435Y-81734600D02*
X122643483Y-81782219D01*
X122643483Y-81782219D02*
X122481578Y-81782219D01*
X122481578Y-81782219D02*
X122400626Y-81734600D01*
X122400626Y-81734600D02*
X122360149Y-81686980D01*
X122360149Y-81686980D02*
X122319673Y-81591742D01*
X122319673Y-81591742D02*
X122319673Y-81306028D01*
X122319673Y-81306028D02*
X122360149Y-81210790D01*
X122360149Y-81210790D02*
X122400626Y-81163171D01*
X122400626Y-81163171D02*
X122481578Y-81115552D01*
X122481578Y-81115552D02*
X122643483Y-81115552D01*
X122643483Y-81115552D02*
X122724435Y-81163171D01*
X123088720Y-81782219D02*
X123088720Y-81115552D01*
X123088720Y-81306028D02*
X123129197Y-81210790D01*
X123129197Y-81210790D02*
X123169673Y-81163171D01*
X123169673Y-81163171D02*
X123250625Y-81115552D01*
X123250625Y-81115552D02*
X123331578Y-81115552D01*
X123736339Y-81782219D02*
X123655387Y-81734600D01*
X123655387Y-81734600D02*
X123614910Y-81686980D01*
X123614910Y-81686980D02*
X123574434Y-81591742D01*
X123574434Y-81591742D02*
X123574434Y-81306028D01*
X123574434Y-81306028D02*
X123614910Y-81210790D01*
X123614910Y-81210790D02*
X123655387Y-81163171D01*
X123655387Y-81163171D02*
X123736339Y-81115552D01*
X123736339Y-81115552D02*
X123857768Y-81115552D01*
X123857768Y-81115552D02*
X123938720Y-81163171D01*
X123938720Y-81163171D02*
X123979196Y-81210790D01*
X123979196Y-81210790D02*
X124019672Y-81306028D01*
X124019672Y-81306028D02*
X124019672Y-81591742D01*
X124019672Y-81591742D02*
X123979196Y-81686980D01*
X123979196Y-81686980D02*
X123938720Y-81734600D01*
X123938720Y-81734600D02*
X123857768Y-81782219D01*
X123857768Y-81782219D02*
X123736339Y-81782219D01*
X124343482Y-81734600D02*
X124464911Y-81782219D01*
X124464911Y-81782219D02*
X124667292Y-81782219D01*
X124667292Y-81782219D02*
X124748244Y-81734600D01*
X124748244Y-81734600D02*
X124788720Y-81686980D01*
X124788720Y-81686980D02*
X124829197Y-81591742D01*
X124829197Y-81591742D02*
X124829197Y-81496504D01*
X124829197Y-81496504D02*
X124788720Y-81401266D01*
X124788720Y-81401266D02*
X124748244Y-81353647D01*
X124748244Y-81353647D02*
X124667292Y-81306028D01*
X124667292Y-81306028D02*
X124505387Y-81258409D01*
X124505387Y-81258409D02*
X124424435Y-81210790D01*
X124424435Y-81210790D02*
X124383958Y-81163171D01*
X124383958Y-81163171D02*
X124343482Y-81067933D01*
X124343482Y-81067933D02*
X124343482Y-80972695D01*
X124343482Y-80972695D02*
X124383958Y-80877457D01*
X124383958Y-80877457D02*
X124424435Y-80829838D01*
X124424435Y-80829838D02*
X124505387Y-80782219D01*
X124505387Y-80782219D02*
X124707768Y-80782219D01*
X124707768Y-80782219D02*
X124829197Y-80829838D01*
X125517292Y-81734600D02*
X125436340Y-81782219D01*
X125436340Y-81782219D02*
X125274435Y-81782219D01*
X125274435Y-81782219D02*
X125193482Y-81734600D01*
X125193482Y-81734600D02*
X125153006Y-81639361D01*
X125153006Y-81639361D02*
X125153006Y-81258409D01*
X125153006Y-81258409D02*
X125193482Y-81163171D01*
X125193482Y-81163171D02*
X125274435Y-81115552D01*
X125274435Y-81115552D02*
X125436340Y-81115552D01*
X125436340Y-81115552D02*
X125517292Y-81163171D01*
X125517292Y-81163171D02*
X125557768Y-81258409D01*
X125557768Y-81258409D02*
X125557768Y-81353647D01*
X125557768Y-81353647D02*
X125153006Y-81448885D01*
X125922053Y-81115552D02*
X125922053Y-81782219D01*
X125922053Y-81210790D02*
X125962530Y-81163171D01*
X125962530Y-81163171D02*
X126043482Y-81115552D01*
X126043482Y-81115552D02*
X126164911Y-81115552D01*
X126164911Y-81115552D02*
X126245863Y-81163171D01*
X126245863Y-81163171D02*
X126286339Y-81258409D01*
X126286339Y-81258409D02*
X126286339Y-81782219D01*
X126650625Y-81734600D02*
X126731578Y-81782219D01*
X126731578Y-81782219D02*
X126893482Y-81782219D01*
X126893482Y-81782219D02*
X126974435Y-81734600D01*
X126974435Y-81734600D02*
X127014911Y-81639361D01*
X127014911Y-81639361D02*
X127014911Y-81591742D01*
X127014911Y-81591742D02*
X126974435Y-81496504D01*
X126974435Y-81496504D02*
X126893482Y-81448885D01*
X126893482Y-81448885D02*
X126772054Y-81448885D01*
X126772054Y-81448885D02*
X126691101Y-81401266D01*
X126691101Y-81401266D02*
X126650625Y-81306028D01*
X126650625Y-81306028D02*
X126650625Y-81258409D01*
X126650625Y-81258409D02*
X126691101Y-81163171D01*
X126691101Y-81163171D02*
X126772054Y-81115552D01*
X126772054Y-81115552D02*
X126893482Y-81115552D01*
X126893482Y-81115552D02*
X126974435Y-81163171D01*
X127703006Y-81734600D02*
X127622054Y-81782219D01*
X127622054Y-81782219D02*
X127460149Y-81782219D01*
X127460149Y-81782219D02*
X127379196Y-81734600D01*
X127379196Y-81734600D02*
X127338720Y-81639361D01*
X127338720Y-81639361D02*
X127338720Y-81258409D01*
X127338720Y-81258409D02*
X127379196Y-81163171D01*
X127379196Y-81163171D02*
X127460149Y-81115552D01*
X127460149Y-81115552D02*
X127622054Y-81115552D01*
X127622054Y-81115552D02*
X127703006Y-81163171D01*
X127703006Y-81163171D02*
X127743482Y-81258409D01*
X127743482Y-81258409D02*
X127743482Y-81353647D01*
X127743482Y-81353647D02*
X127338720Y-81448885D01*
D11*
X119881667Y-81644895D02*
X119615000Y-81263942D01*
X119424524Y-81644895D02*
X119424524Y-80844895D01*
X119424524Y-80844895D02*
X119729286Y-80844895D01*
X119729286Y-80844895D02*
X119805476Y-80882990D01*
X119805476Y-80882990D02*
X119843571Y-80921085D01*
X119843571Y-80921085D02*
X119881667Y-80997276D01*
X119881667Y-80997276D02*
X119881667Y-81111561D01*
X119881667Y-81111561D02*
X119843571Y-81187752D01*
X119843571Y-81187752D02*
X119805476Y-81225847D01*
X119805476Y-81225847D02*
X119729286Y-81263942D01*
X119729286Y-81263942D02*
X119424524Y-81263942D01*
X120643571Y-81644895D02*
X120186428Y-81644895D01*
X120415000Y-81644895D02*
X120415000Y-80844895D01*
X120415000Y-80844895D02*
X120338809Y-80959180D01*
X120338809Y-80959180D02*
X120262619Y-81035371D01*
X120262619Y-81035371D02*
X120186428Y-81073466D01*
X122843704Y-80143332D02*
X122881800Y-80181428D01*
X122881800Y-80181428D02*
X122919895Y-80295713D01*
X122919895Y-80295713D02*
X122919895Y-80371904D01*
X122919895Y-80371904D02*
X122881800Y-80486190D01*
X122881800Y-80486190D02*
X122805609Y-80562380D01*
X122805609Y-80562380D02*
X122729419Y-80600475D01*
X122729419Y-80600475D02*
X122577038Y-80638571D01*
X122577038Y-80638571D02*
X122462752Y-80638571D01*
X122462752Y-80638571D02*
X122310371Y-80600475D01*
X122310371Y-80600475D02*
X122234180Y-80562380D01*
X122234180Y-80562380D02*
X122157990Y-80486190D01*
X122157990Y-80486190D02*
X122119895Y-80371904D01*
X122119895Y-80371904D02*
X122119895Y-80295713D01*
X122119895Y-80295713D02*
X122157990Y-80181428D01*
X122157990Y-80181428D02*
X122196085Y-80143332D01*
X122196085Y-79838571D02*
X122157990Y-79800475D01*
X122157990Y-79800475D02*
X122119895Y-79724285D01*
X122119895Y-79724285D02*
X122119895Y-79533809D01*
X122119895Y-79533809D02*
X122157990Y-79457618D01*
X122157990Y-79457618D02*
X122196085Y-79419523D01*
X122196085Y-79419523D02*
X122272276Y-79381428D01*
X122272276Y-79381428D02*
X122348466Y-79381428D01*
X122348466Y-79381428D02*
X122462752Y-79419523D01*
X122462752Y-79419523D02*
X122919895Y-79876666D01*
X122919895Y-79876666D02*
X122919895Y-79381428D01*
X119881667Y-74024895D02*
X119615000Y-73643942D01*
X119424524Y-74024895D02*
X119424524Y-73224895D01*
X119424524Y-73224895D02*
X119729286Y-73224895D01*
X119729286Y-73224895D02*
X119805476Y-73262990D01*
X119805476Y-73262990D02*
X119843571Y-73301085D01*
X119843571Y-73301085D02*
X119881667Y-73377276D01*
X119881667Y-73377276D02*
X119881667Y-73491561D01*
X119881667Y-73491561D02*
X119843571Y-73567752D01*
X119843571Y-73567752D02*
X119805476Y-73605847D01*
X119805476Y-73605847D02*
X119729286Y-73643942D01*
X119729286Y-73643942D02*
X119424524Y-73643942D01*
X120186428Y-73301085D02*
X120224524Y-73262990D01*
X120224524Y-73262990D02*
X120300714Y-73224895D01*
X120300714Y-73224895D02*
X120491190Y-73224895D01*
X120491190Y-73224895D02*
X120567381Y-73262990D01*
X120567381Y-73262990D02*
X120605476Y-73301085D01*
X120605476Y-73301085D02*
X120643571Y-73377276D01*
X120643571Y-73377276D02*
X120643571Y-73453466D01*
X120643571Y-73453466D02*
X120605476Y-73567752D01*
X120605476Y-73567752D02*
X120148333Y-74024895D01*
X120148333Y-74024895D02*
X120643571Y-74024895D01*
X125120476Y-79574895D02*
X125120476Y-80222514D01*
X125120476Y-80222514D02*
X125158571Y-80298704D01*
X125158571Y-80298704D02*
X125196666Y-80336800D01*
X125196666Y-80336800D02*
X125272857Y-80374895D01*
X125272857Y-80374895D02*
X125425238Y-80374895D01*
X125425238Y-80374895D02*
X125501428Y-80336800D01*
X125501428Y-80336800D02*
X125539523Y-80298704D01*
X125539523Y-80298704D02*
X125577619Y-80222514D01*
X125577619Y-80222514D02*
X125577619Y-79574895D01*
X125882380Y-79574895D02*
X126377618Y-79574895D01*
X126377618Y-79574895D02*
X126110952Y-79879657D01*
X126110952Y-79879657D02*
X126225237Y-79879657D01*
X126225237Y-79879657D02*
X126301428Y-79917752D01*
X126301428Y-79917752D02*
X126339523Y-79955847D01*
X126339523Y-79955847D02*
X126377618Y-80032038D01*
X126377618Y-80032038D02*
X126377618Y-80222514D01*
X126377618Y-80222514D02*
X126339523Y-80298704D01*
X126339523Y-80298704D02*
X126301428Y-80336800D01*
X126301428Y-80336800D02*
X126225237Y-80374895D01*
X126225237Y-80374895D02*
X125996666Y-80374895D01*
X125996666Y-80374895D02*
X125920475Y-80336800D01*
X125920475Y-80336800D02*
X125882380Y-80298704D01*
D12*
X119881667Y-75218184D02*
X119843571Y-75256280D01*
X119843571Y-75256280D02*
X119729286Y-75294375D01*
X119729286Y-75294375D02*
X119653095Y-75294375D01*
X119653095Y-75294375D02*
X119538809Y-75256280D01*
X119538809Y-75256280D02*
X119462619Y-75180089D01*
X119462619Y-75180089D02*
X119424524Y-75103899D01*
X119424524Y-75103899D02*
X119386428Y-74951518D01*
X119386428Y-74951518D02*
X119386428Y-74837232D01*
X119386428Y-74837232D02*
X119424524Y-74684851D01*
X119424524Y-74684851D02*
X119462619Y-74608660D01*
X119462619Y-74608660D02*
X119538809Y-74532470D01*
X119538809Y-74532470D02*
X119653095Y-74494375D01*
X119653095Y-74494375D02*
X119729286Y-74494375D01*
X119729286Y-74494375D02*
X119843571Y-74532470D01*
X119843571Y-74532470D02*
X119881667Y-74570565D01*
X120148333Y-74494375D02*
X120643571Y-74494375D01*
X120643571Y-74494375D02*
X120376905Y-74799137D01*
X120376905Y-74799137D02*
X120491190Y-74799137D01*
X120491190Y-74799137D02*
X120567381Y-74837232D01*
X120567381Y-74837232D02*
X120605476Y-74875327D01*
X120605476Y-74875327D02*
X120643571Y-74951518D01*
X120643571Y-74951518D02*
X120643571Y-75141994D01*
X120643571Y-75141994D02*
X120605476Y-75218184D01*
X120605476Y-75218184D02*
X120567381Y-75256280D01*
X120567381Y-75256280D02*
X120491190Y-75294375D01*
X120491190Y-75294375D02*
X120262619Y-75294375D01*
X120262619Y-75294375D02*
X120186428Y-75256280D01*
X120186428Y-75256280D02*
X120148333Y-75218184D01*
D11*
X123691667Y-73948704D02*
X123653571Y-73986800D01*
X123653571Y-73986800D02*
X123539286Y-74024895D01*
X123539286Y-74024895D02*
X123463095Y-74024895D01*
X123463095Y-74024895D02*
X123348809Y-73986800D01*
X123348809Y-73986800D02*
X123272619Y-73910609D01*
X123272619Y-73910609D02*
X123234524Y-73834419D01*
X123234524Y-73834419D02*
X123196428Y-73682038D01*
X123196428Y-73682038D02*
X123196428Y-73567752D01*
X123196428Y-73567752D02*
X123234524Y-73415371D01*
X123234524Y-73415371D02*
X123272619Y-73339180D01*
X123272619Y-73339180D02*
X123348809Y-73262990D01*
X123348809Y-73262990D02*
X123463095Y-73224895D01*
X123463095Y-73224895D02*
X123539286Y-73224895D01*
X123539286Y-73224895D02*
X123653571Y-73262990D01*
X123653571Y-73262990D02*
X123691667Y-73301085D01*
X124453571Y-74024895D02*
X123996428Y-74024895D01*
X124225000Y-74024895D02*
X124225000Y-73224895D01*
X124225000Y-73224895D02*
X124148809Y-73339180D01*
X124148809Y-73339180D02*
X124072619Y-73415371D01*
X124072619Y-73415371D02*
X123996428Y-73453466D01*
X120040476Y-77034895D02*
X120040476Y-77682514D01*
X120040476Y-77682514D02*
X120078571Y-77758704D01*
X120078571Y-77758704D02*
X120116666Y-77796800D01*
X120116666Y-77796800D02*
X120192857Y-77834895D01*
X120192857Y-77834895D02*
X120345238Y-77834895D01*
X120345238Y-77834895D02*
X120421428Y-77796800D01*
X120421428Y-77796800D02*
X120459523Y-77758704D01*
X120459523Y-77758704D02*
X120497619Y-77682514D01*
X120497619Y-77682514D02*
X120497619Y-77034895D01*
X120840475Y-77111085D02*
X120878571Y-77072990D01*
X120878571Y-77072990D02*
X120954761Y-77034895D01*
X120954761Y-77034895D02*
X121145237Y-77034895D01*
X121145237Y-77034895D02*
X121221428Y-77072990D01*
X121221428Y-77072990D02*
X121259523Y-77111085D01*
X121259523Y-77111085D02*
X121297618Y-77187276D01*
X121297618Y-77187276D02*
X121297618Y-77263466D01*
X121297618Y-77263466D02*
X121259523Y-77377752D01*
X121259523Y-77377752D02*
X120802380Y-77834895D01*
X120802380Y-77834895D02*
X121297618Y-77834895D01*
X117500476Y-78939895D02*
X117500476Y-79587514D01*
X117500476Y-79587514D02*
X117538571Y-79663704D01*
X117538571Y-79663704D02*
X117576666Y-79701800D01*
X117576666Y-79701800D02*
X117652857Y-79739895D01*
X117652857Y-79739895D02*
X117805238Y-79739895D01*
X117805238Y-79739895D02*
X117881428Y-79701800D01*
X117881428Y-79701800D02*
X117919523Y-79663704D01*
X117919523Y-79663704D02*
X117957619Y-79587514D01*
X117957619Y-79587514D02*
X117957619Y-78939895D01*
X118757618Y-79739895D02*
X118300475Y-79739895D01*
X118529047Y-79739895D02*
X118529047Y-78939895D01*
X118529047Y-78939895D02*
X118452856Y-79054180D01*
X118452856Y-79054180D02*
X118376666Y-79130371D01*
X118376666Y-79130371D02*
X118300475Y-79168466D01*
D13*
%TO.C,R1*%
X118263641Y-80900000D02*
X117956359Y-80900000D01*
X118263641Y-81660000D02*
X117956359Y-81660000D01*
%TO.C,C2*%
X122195000Y-77997164D02*
X122195000Y-78212836D01*
X122915000Y-77997164D02*
X122915000Y-78212836D01*
%TO.C,J1*%
X112970000Y-76200000D02*
X112970000Y-81340000D01*
X112970000Y-76200000D02*
X115630000Y-76200000D01*
X112970000Y-81340000D02*
X115630000Y-81340000D01*
X114300000Y-73600000D02*
X115630000Y-73600000D01*
X115630000Y-73600000D02*
X115630000Y-74930000D01*
X115630000Y-76200000D02*
X115630000Y-81340000D01*
%TO.C,R2*%
X118138641Y-73280000D02*
X117831359Y-73280000D01*
X118138641Y-74040000D02*
X117831359Y-74040000D01*
%TO.C,U3*%
X124370000Y-75860000D02*
X124545000Y-75860000D01*
X124370000Y-76535000D02*
X124370000Y-75860000D01*
X124370000Y-78405000D02*
X124370000Y-78780000D01*
X127090000Y-75860000D02*
X126915000Y-75860000D01*
X127090000Y-76535000D02*
X127090000Y-75860000D01*
X127090000Y-78405000D02*
X127090000Y-79080000D01*
X127090000Y-79080000D02*
X126915000Y-79080000D01*
X124370000Y-79080000D02*
X124180000Y-79220000D01*
X124180000Y-78940000D01*
X124370000Y-79080000D01*
G36*
X124370000Y-79080000D02*
G01*
X124180000Y-79220000D01*
X124180000Y-78940000D01*
X124370000Y-79080000D01*
G37*
%TO.C,C3*%
X117847164Y-74570000D02*
X118062836Y-74570000D01*
X117847164Y-75290000D02*
X118062836Y-75290000D01*
%TO.C,C1*%
X125682836Y-73300000D02*
X125467164Y-73300000D01*
X125682836Y-74020000D02*
X125467164Y-74020000D01*
%TO.C,U2*%
X121815000Y-75985000D02*
X121815000Y-75225000D01*
X122135000Y-76305000D02*
X122895000Y-76305000D01*
X122895000Y-75225000D02*
X121815000Y-75225000D01*
X122895000Y-76305000D02*
X122895000Y-75225000D01*
X121815000Y-76805000D02*
X121315000Y-76305000D01*
X121815000Y-76305000D01*
X121815000Y-76805000D01*
G36*
X121815000Y-76805000D02*
G01*
X121315000Y-76305000D01*
X121815000Y-76305000D01*
X121815000Y-76805000D01*
G37*
%TO.C,J2*%
X128210000Y-76200000D02*
X128210000Y-81340000D01*
X128210000Y-76200000D02*
X130870000Y-76200000D01*
X128210000Y-81340000D02*
X130870000Y-81340000D01*
X129540000Y-73600000D02*
X130870000Y-73600000D01*
X130870000Y-73600000D02*
X130870000Y-74930000D01*
X130870000Y-76200000D02*
X130870000Y-81340000D01*
%TO.C,U1*%
X116990000Y-76785000D02*
X116990000Y-76590000D01*
X117000000Y-78580000D02*
X117000000Y-78155000D01*
X117175000Y-78580000D02*
X117000000Y-78580000D01*
X119045000Y-76360000D02*
X119220000Y-76360000D01*
X119045000Y-78580000D02*
X119220000Y-78580000D01*
X119220000Y-76360000D02*
X119220000Y-76785000D01*
X119220000Y-78580000D02*
X119220000Y-78155000D01*
X116990000Y-76350000D02*
X116850000Y-76160000D01*
X117130000Y-76160000D01*
X116990000Y-76350000D01*
G36*
X116990000Y-76350000D02*
G01*
X116850000Y-76160000D01*
X117130000Y-76160000D01*
X116990000Y-76350000D01*
G37*
%TD*%
M02*
